<?xml version="1.0" encoding="utf-8"?>
<!-- Generator: Adobe Illustrator 27.9.0, SVG Export Plug-In . SVG Version: 6.00 Build 0)  -->
<svg version="1.1" id="Layer_1" xmlns="http://www.w3.org/2000/svg" xmlns:xlink="http://www.w3.org/1999/xlink" x="0px" y="0px"
	 viewBox="0 0 1922 732" style="enable-background:new 0 0 1922 732;" xml:space="preserve">
<style type="text/css">
	.st0{fill:#F2F2F2;}
	.st1{fill:#009FFF;}
	.st2{fill:none;stroke:#040401;stroke-opacity:0.1;}
	.st3{fill:#040401;fill-opacity:5.000000e-02;}
</style>
<path class="st0" d="M47.8,150.5c-5.3,0-9.7,4.3-9.7,9.7s4.3,9.7,9.7,9.7s9.7-4.3,9.7-9.7S53.2,150.5,47.8,150.5z"/>
<path class="st1" d="M47.8,120.5c-5.3,0-9.7,4.3-9.7,9.7c0,5.4,4.3,9.7,9.7,9.7s9.7-4.3,9.7-9.7C57.5,124.8,53.2,120.5,47.8,120.5z"
	/>
<path class="st2" d="M76.9,60.9c-5.1,0-9.3,4.2-9.3,9.3c0,5.1,4.2,9.3,9.3,9.3c5.1,0,9.3-4.2,9.3-9.3C86.1,65.1,82,60.9,76.9,60.9z"
	/>
<path class="st2" d="M76.9,150.8c-5.1,0-9.3,4.2-9.3,9.3c0,5.1,4.2,9.3,9.3,9.3c5.1,0,9.3-4.2,9.3-9.3C86.1,155,82,150.8,76.9,150.8
	z"/>
<path class="st1" d="M18.8,60.5c-5.3,0-9.7,4.3-9.7,9.7c0,5.4,4.3,9.7,9.7,9.7c5.3,0,9.7-4.3,9.7-9.7C28.4,64.9,24.1,60.5,18.8,60.5
	z"/>
<path class="st3" d="M47.8,90.5c-5.3,0-9.7,4.3-9.7,9.7c0,5.4,4.3,9.7,9.7,9.7s9.7-4.3,9.7-9.7C57.5,94.8,53.2,90.5,47.8,90.5z"/>
<path class="st3" d="M47.8,60.5c-5.3,0-9.7,4.3-9.7,9.7c0,5.4,4.3,9.7,9.7,9.7s9.7-4.3,9.7-9.7C57.5,64.9,53.2,60.5,47.8,60.5z"/>
<path class="st3" d="M47.8,30.5c-5.3,0-9.7,4.3-9.7,9.7s4.3,9.7,9.7,9.7s9.7-4.3,9.7-9.7S53.2,30.5,47.8,30.5z"/>
<path class="st3" d="M18.8,180.4c-5.3,0-9.7,4.3-9.7,9.7c0,5.4,4.3,9.7,9.7,9.7c5.3,0,9.7-4.3,9.7-9.7
	C28.5,184.8,24.1,180.4,18.8,180.4z"/>
<path class="st3" d="M18.8,150.5c-5.3,0-9.7,4.3-9.7,9.7s4.3,9.7,9.7,9.7c5.3,0,9.7-4.3,9.7-9.7S24.1,150.5,18.8,150.5z"/>
<path class="st3" d="M18.8,120.5c-5.3,0-9.7,4.3-9.7,9.7c0,5.4,4.3,9.7,9.7,9.7c5.3,0,9.7-4.3,9.7-9.7
	C28.5,124.8,24.1,120.5,18.8,120.5z"/>
<path class="st3" d="M76.9,180.4c-5.3,0-9.7,4.3-9.7,9.7c0,5.4,4.3,9.7,9.7,9.7c5.3,0,9.7-4.3,9.7-9.7
	C86.5,184.8,82.2,180.4,76.9,180.4z"/>
<path class="st3" d="M105.9,150.5c-5.3,0-9.7,4.3-9.7,9.7s4.3,9.7,9.7,9.7s9.7-4.3,9.7-9.7S111.2,150.5,105.9,150.5z"/>
<path class="st3" d="M76.9,120.5c-5.3,0-9.7,4.3-9.7,9.7c0,5.4,4.3,9.7,9.7,9.7c5.3,0,9.7-4.3,9.7-9.7
	C86.5,124.8,82.2,120.5,76.9,120.5z"/>
<path class="st3" d="M18.8,90.5c-5.3,0-9.7,4.3-9.7,9.7c0,5.4,4.3,9.7,9.7,9.7c5.3,0,9.7-4.3,9.7-9.7C28.5,94.8,24.1,90.5,18.8,90.5
	z"/>
<path class="st3" d="M18.8,30.5c-5.3,0-9.7,4.3-9.7,9.7s4.3,9.7,9.7,9.7c5.3,0,9.7-4.3,9.7-9.7S24.1,30.5,18.8,30.5z"/>
<path class="st0" d="M1874.2,581.5c5.3,0,9.7-4.3,9.7-9.7s-4.3-9.7-9.7-9.7c-5.3,0-9.7,4.3-9.7,9.7S1868.8,581.5,1874.2,581.5z"/>
<path class="st1" d="M1874.2,611.5c5.3,0,9.7-4.3,9.7-9.7s-4.3-9.7-9.7-9.7c-5.3,0-9.7,4.3-9.7,9.7S1868.8,611.5,1874.2,611.5z"/>
<path class="st2" d="M1845.2,671.1c5.1,0,9.3-4.2,9.3-9.3c0-5.1-4.2-9.3-9.3-9.3s-9.3,4.2-9.3,9.3
	C1835.9,666.9,1840,671.1,1845.2,671.1z"/>
<path class="st2" d="M1845.2,581.2c5.1,0,9.3-4.2,9.3-9.3c0-5.1-4.2-9.3-9.3-9.3s-9.3,4.2-9.3,9.3
	C1835.9,577,1840,581.2,1845.2,581.2z"/>
<path class="st1" d="M1903.2,671.5c5.3,0,9.7-4.3,9.7-9.7c0-5.4-4.3-9.7-9.7-9.7c-5.3,0-9.7,4.3-9.7,9.7
	C1893.6,667.1,1897.9,671.5,1903.2,671.5z"/>
<path class="st3" d="M1874.2,637.7c5.3,0,9.7-4.3,9.7-9.7s-4.3-9.7-9.7-9.7c-5.4,0-9.7,4.3-9.7,9.7S1868.8,637.7,1874.2,637.7z"/>
<path class="st3" d="M1874.2,671.5c5.3,0,9.7-4.3,9.7-9.7c0-5.4-4.3-9.7-9.7-9.7c-5.4,0-9.7,4.3-9.7,9.7
	C1864.5,667.1,1868.8,671.5,1874.2,671.5z"/>
<path class="st3" d="M1874.2,701.5c5.3,0,9.7-4.3,9.7-9.7s-4.3-9.7-9.7-9.7c-5.4,0-9.7,4.3-9.7,9.7S1868.8,701.5,1874.2,701.5z"/>
<path class="st3" d="M1903.2,551.6c5.3,0,9.7-4.3,9.7-9.7s-4.3-9.7-9.7-9.7c-5.3,0-9.7,4.3-9.7,9.7S1897.9,551.6,1903.2,551.6z"/>
<path class="st3" d="M1903.2,581.5c5.3,0,9.7-4.3,9.7-9.7s-4.3-9.7-9.7-9.7c-5.3,0-9.7,4.3-9.7,9.7S1897.9,581.5,1903.2,581.5z"/>
<path class="st3" d="M1903.2,611.5c5.3,0,9.7-4.3,9.7-9.7s-4.3-9.7-9.7-9.7c-5.3,0-9.7,4.3-9.7,9.7S1897.9,611.5,1903.2,611.5z"/>
<path class="st3" d="M1845.1,551.6c5.3,0,9.7-4.3,9.7-9.7s-4.3-9.7-9.7-9.7s-9.7,4.3-9.7,9.7S1839.8,551.6,1845.1,551.6z"/>
<path class="st3" d="M1816.1,581.5c5.3,0,9.7-4.3,9.7-9.7s-4.3-9.7-9.7-9.7s-9.7,4.3-9.7,9.7S1810.8,581.5,1816.1,581.5z"/>
<path class="st3" d="M1845.1,611.5c5.3,0,9.7-4.3,9.7-9.7s-4.3-9.7-9.7-9.7s-9.7,4.3-9.7,9.7S1839.8,611.5,1845.1,611.5z"/>
<path class="st3" d="M1903.2,641.5c5.3,0,9.7-4.3,9.7-9.7s-4.3-9.7-9.7-9.7c-5.3,0-9.7,4.3-9.7,9.7S1897.9,641.5,1903.2,641.5z"/>
<path class="st3" d="M1903.2,701.5c5.3,0,9.7-4.3,9.7-9.7s-4.3-9.7-9.7-9.7c-5.3,0-9.7,4.3-9.7,9.7S1897.9,701.5,1903.2,701.5z"/>
</svg>
