<?xml version="1.0" encoding="utf-8"?>
<!-- Generator: Adobe Illustrator 27.9.0, SVG Export Plug-In . SVG Version: 6.00 Build 0)  -->
<svg version="1.1" id="Layer_1" xmlns="http://www.w3.org/2000/svg" xmlns:xlink="http://www.w3.org/1999/xlink" x="0px" y="0px"
	 viewBox="0 0 168.3 26" style="enable-background:new 0 0 168.3 26;" xml:space="preserve">
<style type="text/css">
	.st0{fill:#FFFFFF;}
	.st1{fill:#009FFF;}
</style>
<g>
	<path class="st0" d="M150.3,1.4h17.5v4.3h-12.2c0,3.2,3.6,4.7,10.7,4.7v4.3c-4.7,0-8.3-0.8-10.7-2.5v8.2h12.2v4.3h-17.5V1.4z"/>
	<path class="st0" d="M134.6,1.4c3.6,0,6.7,1.1,9,3.3c2.4,2.2,3.6,5,3.6,8.4c0,3.4-1.2,6.2-3.6,8.4c-2.4,2.2-5.4,3.3-9,3.3h-8.4V1.4
		H134.6z M131.5,20.4h3.1c2.1,0,3.8-0.7,5.2-2.1c1.4-1.4,2-3.1,2-5.3c0-2.1-0.7-3.9-2-5.3c-1.3-1.4-3.1-2.1-5.2-2.1h-3.1V20.4z"/>
	<path class="st0" d="M117.7,1.4h5.3v23.4h-5.3V1.4z"/>
	<path class="st0" d="M113,20.3c-0.1,0-0.2,0-0.2,0c-1.4,0-2.8-1-4.3-3l-0.7-0.9c2-0.4,3.5-1.2,4.7-2.6c1.2-1.4,1.8-3,1.8-4.9
		c0-2.2-0.9-4-2.6-5.5c-1.7-1.5-3.9-2.2-6.5-2.2H94.5v23.4h5.3v-10l4.1,5.3c0.6,0.9,1.3,1.6,1.9,2.1c0.6,0.6,1.2,1,1.8,1.3
		c0.6,0.3,1.2,0.6,1.9,0.8c0.7,0.2,1.4,0.3,2.1,0.3c0.6,0,1.7,0.1,2.7,0.1v-4.8c-0.2,0.1-0.4,0.2-0.6,0.2
		C113.5,20.2,113.2,20.3,113,20.3z M105.6,12.3c-1.1,0-2.1-0.3-3-0.9c-0.9-0.6-1.6-1.4-2-2.4c-0.5-1-0.7-1.9-0.7-2.9V5.7h5.4
		c1.1,0,2,0.3,2.7,0.9C108.7,7.2,109,8,109,9c0,1-0.3,1.8-1,2.4C107.4,12,106.6,12.3,105.6,12.3z"/>
	<path class="st1" d="M75.5,1.3H80l11.3,23.4h-5.8c-0.3-0.6-0.7-1.1-1.3-1.5c-0.6-0.5-1.2-0.7-2-0.7c-0.6,0-1.3,0.1-2.1,0.4
		c-0.8,0.3-1.5,0.6-2.2,1c-0.7,0.3-1.5,0.6-2.6,0.9c-1,0.3-2,0.4-2.9,0.4c-0.9,0-1.7-0.2-2.3-0.5c-0.7-0.3-1.3-0.9-1.7-1.5
		c-0.4-0.7-0.7-1.5-0.8-2.5c-0.1-1,0-2.2,0.3-3.5c0.3-1.4,0.9-2.8,1.7-4.4L75.5,1.3z M82.2,17.8l-4.4-9l-2.6,5.1
		c-0.3,0.6-0.5,1-0.7,1.4c-0.2,0.4-0.4,0.9-0.6,1.4c-0.2,0.6-0.4,1.1-0.5,1.5c-0.1,0.4-0.1,0.8-0.2,1.1c0,0.4,0.1,0.7,0.3,0.9
		c0.2,0.2,0.5,0.3,0.9,0.3c0.6,0,1.3-0.2,2.2-0.6c0.9-0.4,1.9-0.9,2.9-1.3S81.4,17.9,82.2,17.8z"/>
	<path class="st1" d="M8.6,1.4H13l11.3,23.4h-5.8c-0.3-0.6-0.7-1.1-1.3-1.5c-0.6-0.5-1.2-0.7-2-0.7c-0.6,0-1.3,0.1-2.1,0.4
		c-0.8,0.3-1.5,0.6-2.2,1c-0.7,0.3-1.5,0.6-2.6,0.9c-1,0.3-2,0.4-2.9,0.4c-0.9,0-1.7-0.2-2.3-0.5c-0.7-0.3-1.3-0.9-1.7-1.5
		c-0.4-0.7-0.7-1.5-0.8-2.5c-0.1-1,0-2.2,0.3-3.5c0.3-1.4,0.9-2.8,1.7-4.4L8.6,1.4z M15.2,17.8l-4.4-9L8.2,14
		c-0.3,0.6-0.5,1-0.7,1.4c-0.2,0.4-0.4,0.9-0.6,1.4c-0.2,0.6-0.4,1.1-0.5,1.5c-0.1,0.4-0.1,0.8-0.2,1.1c0,0.4,0.1,0.7,0.3,0.9
		c0.2,0.2,0.5,0.3,0.9,0.3c0.6,0,1.3-0.2,2.2-0.6c0.9-0.4,1.9-0.9,2.9-1.3S14.4,17.9,15.2,17.8z"/>
	<path class="st1" d="M43.6,15.9v6.4c0,0-3.2,2.6-10.7,2.5h-5.3V1.4h5.3v17.5c0,0.9,0.7,1.5,1.6,1.5C37.4,20.3,43.6,19.6,43.6,15.9z
		"/>
	<path class="st1" d="M46.8,1.4v23.4h5.3v-4.3v-8.2c2.4,1.7,6,2.5,10.7,2.5v-4.3c-7.2,0-10.7-1.6-10.7-4.7h12.1V1.4H46.8z"/>
</g>
</svg>
