<?xml version="1.0" encoding="utf-8"?>
<!-- Generator: Adobe Illustrator 27.9.0, SVG Export Plug-In . SVG Version: 6.00 Build 0)  -->
<svg version="1.1" id="Layer_1" xmlns="http://www.w3.org/2000/svg" xmlns:xlink="http://www.w3.org/1999/xlink" x="0px" y="0px"
	 viewBox="0 0 168 41" style="enable-background:new 0 0 168 41;" xml:space="preserve">
<style type="text/css">
	.st0{fill:#15161B;}
	.st1{fill:#009FFF;}
</style>
<path class="st0" d="M49.6,28.6h12V25h-7.7V11.4h-4.2V28.6z"/>
<path class="st0" d="M68.6,26.2c-1.7,0-2.6-1.5-2.6-3.7s0.9-3.7,2.6-3.7c1.7,0,2.6,1.5,2.6,3.7S70.3,26.2,68.6,26.2z M68.6,29
	c4,0,6.6-2.8,6.6-6.5s-2.6-6.5-6.6-6.5c-3.9,0-6.6,2.8-6.6,6.5S64.7,29,68.6,29z"/>
<path class="st0" d="M82,32.8c1.8,0,3.4-0.4,4.5-1.4c1-0.9,1.6-2.2,1.6-4.1V16.3h-3.7v1.3h0c-0.7-1-1.8-1.7-3.5-1.7
	c-3,0-5.2,2.5-5.2,6.1c0,3.8,2.6,5.8,5.3,5.8c1.5,0,2.4-0.6,3.1-1.4h0.1v1.2c0,1.5-0.7,2.4-2.4,2.4c-1.3,0-1.9-0.6-2.2-1.2H76
	C76.4,31.4,78.7,32.8,82,32.8z M82,25c-1.5,0-2.4-1.2-2.4-3c0-1.9,1-3.1,2.4-3.1c1.6,0,2.5,1.4,2.5,3C84.5,23.7,83.7,25,82,25z"/>
<path class="st0" d="M95.9,26.2c-1.7,0-2.6-1.5-2.6-3.7s0.9-3.7,2.6-3.7c1.7,0,2.6,1.5,2.6,3.7S97.6,26.2,95.9,26.2z M95.9,29
	c4,0,6.6-2.8,6.6-6.5s-2.6-6.5-6.6-6.5c-3.9,0-6.6,2.8-6.6,6.5S92,29,95.9,29z"/>
<path class="st0" d="M103.6,28.6h3.9V16.3h-3.9V28.6z M103.6,14.6h3.9v-3.2h-3.9V14.6z"/>
<path class="st0" d="M109.2,32.6h3.9v-5.3h0c0.8,1,1.9,1.7,3.5,1.7c3.2,0,5.4-2.5,5.4-6.5c0-3.7-2-6.5-5.3-6.5
	c-1.7,0-2.9,0.7-3.7,1.8h-0.1v-1.5h-3.7V32.6z M115.6,25.9c-1.7,0-2.6-1.4-2.6-3.4s0.9-3.5,2.6-3.5c1.7,0,2.5,1.4,2.5,3.5
	C118,24.7,117.1,25.9,115.6,25.9z"/>
<path class="st0" d="M128.4,29c3.2,0,5.6-1.4,5.6-4.1c0-3.1-2.5-3.7-4.7-4.1c-1.6-0.3-3-0.4-3-1.3c0-0.8,0.7-1.1,1.7-1.1
	c1.1,0,1.8,0.3,2,1.4h3.6c-0.2-2.4-2.1-3.9-5.5-3.9c-2.9,0-5.3,1.3-5.3,3.9c0,2.9,2.3,3.5,4.4,3.8c1.6,0.3,3.1,0.4,3.1,1.5
	c0,0.8-0.7,1.2-1.9,1.2c-1.3,0-2.1-0.6-2.3-1.8h-3.7C122.5,27.3,124.8,29,128.4,29z"/>
<path class="st0" d="M139.3,28.9c1.7,0,2.8-0.7,3.7-1.9h0.1v1.5h3.7V16.3h-3.9v6.9c0,1.5-0.8,2.5-2.2,2.5c-1.2,0-1.8-0.7-1.8-2.1
	v-7.2H135v8.1C135,27.1,136.4,28.9,139.3,28.9z"/>
<path class="st0" d="M148.5,28.6h3.9v-6.9c0-1.5,0.7-2.5,1.9-2.5c1.2,0,1.7,0.8,1.7,2.1v7.3h3.9v-6.9c0-1.5,0.7-2.5,1.9-2.5
	c1.2,0,1.7,0.8,1.7,2.1v7.3h3.9v-8c0-2.8-1.4-4.7-4.2-4.7c-1.6,0-2.9,0.7-3.9,2.2h0c-0.6-1.3-1.8-2.2-3.5-2.2c-1.8,0-3,0.8-3.7,2.1
	h-0.1v-1.8h-3.7V28.6z"/>
<path class="st1" d="M25.7,1.6l-3.9-1.1l-3.3,12.4l-3-11.2l-3.9,1.1l3.2,12.1L6.7,6.8L3.8,9.7l8.8,8.8l-11-2.9l-1.1,3.9l12,3.2
	c-0.1-0.6-0.2-1.2-0.2-1.8c0-4.5,3.6-8.1,8.1-8.1s8.1,3.6,8.1,8.1c0,0.6-0.1,1.2-0.2,1.8l10.9,2.9l1.1-3.9l-12.1-3.2l11-2.9
	l-1.1-3.9l-12.1,3.2l8.1-8.1l-2.9-2.9l-8.7,8.7L25.7,1.6z"/>
<path class="st1" d="M28.5,22.8c-0.3,1.4-1,2.7-2,3.7l7.9,7.9l2.9-2.9L28.5,22.8z"/>
<path class="st1" d="M26.4,26.6c-1,1-2.2,1.8-3.6,2.2l2.9,10.7l3.9-1.1L26.4,26.6z"/>
<path class="st1" d="M22.6,28.8c-0.7,0.2-1.3,0.3-2,0.3c-0.8,0-1.5-0.1-2.2-0.3l-2.9,10.8l3.9,1.1L22.6,28.8z"/>
<path class="st1" d="M18.3,28.7c-1.4-0.4-2.6-1.2-3.6-2.2l-7.9,7.9l2.9,2.9L18.3,28.7z"/>
<path class="st1" d="M14.6,26.4c-1-1-1.6-2.3-2-3.7l-11,2.9l1.1,3.9L14.6,26.4z"/>
</svg>
