<?xml version="1.0" encoding="utf-8"?>
<!-- Generator: Adobe Illustrator 27.9.0, SVG Export Plug-In . SVG Version: 6.00 Build 0)  -->
<svg version="1.1" id="Layer_1" xmlns="http://www.w3.org/2000/svg" xmlns:xlink="http://www.w3.org/1999/xlink" x="0px" y="0px"
	 viewBox="0 0 168 41" style="enable-background:new 0 0 168 41;" xml:space="preserve">
<style type="text/css">
	.st0{fill:#15161B;}
	.st1{fill-rule:evenodd;clip-rule:evenodd;fill:#009FFF;}
</style>
<path class="st0" d="M49.2,29h12v-3.6h-7.7V11.9h-4.2V29z"/>
<path class="st0" d="M68.2,26.6c-1.7,0-2.6-1.5-2.6-3.7s0.9-3.7,2.6-3.7s2.6,1.5,2.6,3.7S69.9,26.6,68.2,26.6z M68.3,29.4
	c4,0,6.6-2.8,6.6-6.5s-2.6-6.5-6.6-6.5c-3.9,0-6.6,2.8-6.6,6.5S64.3,29.4,68.3,29.4z"/>
<path class="st0" d="M81.7,33.3c1.8,0,3.4-0.4,4.5-1.4c1-0.9,1.6-2.2,1.6-4.1V16.8h-3.7v1.3h0c-0.7-1-1.8-1.7-3.5-1.7
	c-3,0-5.2,2.5-5.2,6.1c0,3.8,2.6,5.8,5.3,5.8c1.5,0,2.4-0.6,3.1-1.4H84v1.2c0,1.5-0.7,2.4-2.4,2.4c-1.3,0-1.9-0.6-2.2-1.2h-3.8
	C76.1,31.9,78.3,33.3,81.7,33.3z M81.6,25.5c-1.5,0-2.4-1.2-2.4-3c0-1.9,1-3.1,2.4-3.1c1.6,0,2.5,1.4,2.5,3
	C84.1,24.1,83.3,25.5,81.6,25.5z"/>
<path class="st0" d="M95.5,26.6c-1.7,0-2.6-1.5-2.6-3.7s0.9-3.7,2.6-3.7c1.7,0,2.6,1.5,2.6,3.7S97.2,26.6,95.5,26.6z M95.5,29.4
	c4,0,6.6-2.8,6.6-6.5s-2.6-6.5-6.6-6.5c-3.9,0-6.6,2.8-6.6,6.5S91.6,29.4,95.5,29.4z"/>
<path class="st0" d="M103.2,29h3.9V16.8h-3.9V29z M103.2,15h3.9v-3.2h-3.9V15z"/>
<path class="st0" d="M108.8,33.1h3.9v-5.3h0c0.8,1,1.9,1.7,3.5,1.7c3.2,0,5.4-2.5,5.4-6.5c0-3.7-2-6.5-5.3-6.5
	c-1.7,0-2.9,0.7-3.7,1.8h-0.1v-1.5h-3.7V33.1z M115.3,26.4c-1.7,0-2.6-1.4-2.6-3.4s0.9-3.5,2.6-3.5c1.7,0,2.5,1.4,2.5,3.5
	C117.7,25.1,116.8,26.4,115.3,26.4z"/>
<path class="st0" d="M128,29.4c3.2,0,5.6-1.4,5.6-4.1c0-3.1-2.5-3.7-4.7-4.1c-1.6-0.3-3-0.4-3-1.3c0-0.8,0.7-1.1,1.7-1.1
	c1.1,0,1.8,0.3,2,1.4h3.6c-0.2-2.4-2.1-3.9-5.5-3.9c-2.9,0-5.3,1.3-5.3,3.9c0,2.9,2.3,3.5,4.4,3.8c1.6,0.3,3.1,0.4,3.1,1.5
	c0,0.8-0.7,1.2-1.9,1.2c-1.3,0-2.1-0.6-2.3-1.8H122C122.1,27.8,124.4,29.4,128,29.4z"/>
<path class="st0" d="M138.9,29.4c1.7,0,2.8-0.7,3.7-1.9h0.1V29h3.7V16.8h-3.9v6.9c0,1.5-0.8,2.5-2.2,2.5c-1.2,0-1.8-0.7-1.8-2.1
	v-7.2h-3.9v8.1C134.6,27.6,136.1,29.4,138.9,29.4z"/>
<path class="st0" d="M148.1,29h3.9v-6.9c0-1.5,0.7-2.5,1.9-2.5c1.2,0,1.7,0.8,1.7,2.1V29h3.9v-6.9c0-1.5,0.7-2.5,1.9-2.5
	c1.2,0,1.7,0.8,1.7,2.1V29h3.9v-8c0-2.8-1.4-4.7-4.2-4.7c-1.6,0-2.9,0.7-3.9,2.2h0c-0.6-1.3-1.8-2.2-3.5-2.2c-1.8,0-3,0.8-3.7,2.1
	h-0.1v-1.8h-3.7V29z"/>
<path class="st1" d="M9.2,4.1c-1.4,1-2.7,2.2-3.8,3.5c4.6-0.4,10.4,0.3,17.2,3.7c7.2,3.6,13,3.7,17.1,3c-0.4-1.1-0.8-2.2-1.4-3.2
	c-4.6,0.5-10.6-0.2-17.5-3.6C16.4,5.2,12.5,4.3,9.2,4.1z M35.6,7.2c-3.7-4.1-9-6.7-14.9-6.7c-1.7,0-3.4,0.2-5,0.6
	c2.2,0.6,4.5,1.5,6.9,2.7C27.6,6.4,32,7.2,35.6,7.2z M40.5,18.2c-4.9,1-11.7,0.8-19.8-3.3C13.2,11.1,7.2,11.1,3.1,12
	c-0.2,0-0.4,0.1-0.6,0.1c-0.5,1.2-1,2.4-1.3,3.6c0.3-0.1,0.7-0.2,1-0.2c4.9-1.1,11.9-1,20.3,3.2c7.6,3.8,13.6,3.7,17.7,2.8
	c0.1,0,0.3-0.1,0.4-0.1c0-0.3,0-0.6,0-1C40.7,19.7,40.6,18.9,40.5,18.2z M40,25.7c-4.8,0.8-11.4,0.5-19.2-3.4
	c-7.6-3.8-13.6-3.7-17.7-2.8c-0.9,0.2-1.7,0.4-2.4,0.7c0,0.1,0,0.2,0,0.3c0,11,9,20,20,20C29.9,40.5,37.7,34.3,40,25.7z"/>
</svg>
