<?xml version="1.0" encoding="utf-8"?>
<!-- Generator: Adobe Illustrator 27.9.0, SVG Export Plug-In . SVG Version: 6.00 Build 0)  -->
<svg version="1.1" id="Layer_1" xmlns="http://www.w3.org/2000/svg" xmlns:xlink="http://www.w3.org/1999/xlink" x="0px" y="0px"
	 viewBox="0 0 202 41" style="enable-background:new 0 0 202 41;" xml:space="preserve">
<style type="text/css">
	.st0{fill-rule:evenodd;clip-rule:evenodd;fill:#009FFF;}
	.st1{fill:#15161B;}
	.st2{fill-rule:evenodd;clip-rule:evenodd;fill:#15161B;}
</style>
<path class="st0" d="M25.9,12.2c-1.6-1.1-3.6-1.7-5.6-1.7v-10c4,0,7.8,1.2,11.1,3.4c3.3,2.2,5.9,5.3,7.4,9c1.5,3.7,1.9,7.7,1.1,11.6
	c-0.8,3.9-2.7,7.4-5.5,10.2c-2.8,2.8-6.4,4.7-10.2,5.5c-3.9,0.8-7.9,0.4-11.6-1.1c-3.7-1.5-6.8-4.1-9-7.4c-2.2-3.3-3.4-7.2-3.4-11.1
	h10c0,2,0.6,3.9,1.7,5.6c1.1,1.6,2.7,2.9,4.5,3.7c1.8,0.8,3.8,1,5.8,0.6c1.9-0.4,3.7-1.3,5.1-2.7c1.4-1.4,2.4-3.2,2.7-5.1
	c0.4-1.9,0.2-4-0.6-5.8C28.8,14.9,27.5,13.3,25.9,12.2z"/>
<path class="st0" d="M10.3,0.5c0,1.3-0.3,2.6-0.8,3.8C9,5.6,8.3,6.7,7.4,7.6c-0.9,0.9-2,1.7-3.2,2.2c-1.2,0.5-2.5,0.8-3.8,0.8v10
	C2.9,20.5,5.5,20,8,19c2.4-1,4.6-2.5,6.5-4.3c1.9-1.9,3.3-4.1,4.3-6.5c1-2.4,1.5-5,1.5-7.7L10.3,0.5z"/>
<path class="st1" d="M125.9,15h-4.9v15.4h4.9V15z"/>
<path class="st1" d="M121.6,12.1c0.5,0.5,1.1,0.8,1.9,0.8c0.8,0,1.4-0.3,1.9-0.8c0.5-0.5,0.7-1.2,0.7-1.9c0-0.8-0.2-1.4-0.7-1.9
	c-0.5-0.5-1.1-0.8-1.9-0.8c-0.8,0-1.4,0.3-1.9,0.8c-0.5,0.5-0.7,1.1-0.7,1.9C120.9,10.9,121.1,11.6,121.6,12.1z"/>
<path class="st1" d="M51.5,30.4V8h5v18h9.9v4.4H51.5z"/>
<path class="st2" d="M75.3,30.8c-1.6,0-3-0.3-4.3-1c-1.3-0.7-2.3-1.7-3-2.9c-0.7-1.2-1.1-2.6-1.1-4.1c0-1.5,0.4-2.9,1.1-4.1
	c0.7-1.2,1.7-2.2,3-2.9c1.3-0.7,2.7-1.1,4.3-1.1c1.6,0,3,0.3,4.3,1c1.3,0.7,2.3,1.7,3,2.9c0.7,1.2,1.1,2.6,1.1,4.1
	c0,1.5-0.4,2.9-1.1,4.1c-0.7,1.2-1.7,2.2-3,2.9C78.4,30.4,76.9,30.8,75.3,30.8z M75.3,26.3c0.7,0,1.3-0.1,1.8-0.4
	c0.5-0.3,0.9-0.8,1.2-1.3c0.3-0.6,0.4-1.2,0.4-1.9c0-0.7-0.1-1.3-0.4-1.9c-0.3-0.5-0.7-1-1.2-1.3c-0.5-0.3-1.1-0.5-1.8-0.5
	c-0.7,0-1.3,0.2-1.8,0.5c-0.5,0.3-0.9,0.7-1.2,1.3c-0.3,0.5-0.4,1.2-0.4,1.9c0,0.7,0.1,1.3,0.4,1.9c0.3,0.5,0.7,1,1.2,1.3
	C74,26.2,74.6,26.3,75.3,26.3z"/>
<path class="st2" d="M87.6,36.4c1.3,0.6,2.8,0.9,4.5,0.9c1.6,0,3.1-0.3,4.4-1c1.3-0.7,2.3-1.6,3-2.7c0.7-1.2,1.1-2.5,1.1-4.1V15
	h-4.8v1c-0.4-0.3-0.8-0.5-1.2-0.8c-0.8-0.4-1.8-0.6-2.8-0.6c-1.4,0-2.7,0.3-3.8,1c-1.1,0.7-2,1.6-2.6,2.7c-0.6,1.1-1,2.4-1,3.9
	c0,1.4,0.3,2.7,1,3.9c0.6,1.2,1.5,2.1,2.6,2.8c1.1,0.7,2.4,1,3.8,1c1,0,2-0.2,2.8-0.6c0.4-0.2,0.8-0.4,1.1-0.7v1
	c0,1.1-0.3,1.9-1,2.5c-0.7,0.6-1.6,0.9-2.8,0.9c-1,0-1.8-0.2-2.5-0.5c-0.7-0.3-1.3-0.8-1.8-1.5l-3,3C85.3,35,86.3,35.9,87.6,36.4z
	 M94.5,25.2c-0.5,0.3-1.1,0.4-1.7,0.4c-0.7,0-1.3-0.1-1.8-0.4c-0.5-0.3-0.9-0.7-1.1-1.2c-0.3-0.5-0.4-1.1-0.4-1.7
	c0-0.6,0.1-1.2,0.4-1.7c0.3-0.5,0.7-0.9,1.2-1.2s1.1-0.4,1.7-0.4c0.7,0,1.3,0.1,1.7,0.4c0.5,0.3,0.9,0.7,1.1,1.2
	c0.3,0.5,0.4,1.1,0.4,1.7c0,0.6-0.1,1.2-0.4,1.7C95.4,24.5,95,24.9,94.5,25.2z"/>
<path class="st2" d="M110.8,30.8c-1.6,0-3-0.3-4.3-1c-1.3-0.7-2.3-1.7-3-2.9c-0.7-1.2-1.1-2.6-1.1-4.1c0-1.5,0.4-2.9,1.1-4.1
	c0.7-1.2,1.7-2.2,3-2.9c1.3-0.7,2.7-1.1,4.3-1.1c1.6,0,3,0.3,4.3,1c1.3,0.7,2.3,1.7,3,2.9c0.7,1.2,1.1,2.6,1.1,4.1
	c0,1.5-0.4,2.9-1.1,4.1c-0.7,1.2-1.7,2.2-3,2.9C113.9,30.4,112.5,30.8,110.8,30.8z M110.8,26.3c0.7,0,1.3-0.1,1.8-0.4
	c0.5-0.3,0.9-0.8,1.2-1.3c0.3-0.6,0.4-1.2,0.4-1.9c0-0.7-0.1-1.3-0.4-1.9c-0.3-0.5-0.7-1-1.2-1.3c-0.5-0.3-1.1-0.5-1.8-0.5
	c-0.7,0-1.3,0.2-1.8,0.5c-0.5,0.3-0.9,0.7-1.2,1.3c-0.3,0.5-0.4,1.2-0.4,1.9c0,0.7,0.1,1.3,0.4,1.9c0.3,0.5,0.7,1,1.2,1.3
	C109.6,26.2,110.2,26.3,110.8,26.3z"/>
<path class="st2" d="M137.6,30.7c-1,0-2-0.2-2.9-0.6c-0.5-0.2-0.9-0.5-1.2-0.8v7.5h-4.8V15h4.9v1.1c0.4-0.3,0.7-0.5,1.2-0.7
	c0.9-0.4,1.8-0.6,2.9-0.6c1.5,0,2.7,0.3,3.9,1c1.1,0.7,2,1.6,2.7,2.9c0.7,1.2,1,2.6,1,4.1c0,1.5-0.3,2.9-1,4.1
	c-0.6,1.2-1.5,2.2-2.7,2.9C140.3,30.4,139,30.7,137.6,30.7z M136.7,26.3c0.7,0,1.3-0.2,1.8-0.5c0.5-0.3,0.9-0.8,1.2-1.3
	c0.3-0.5,0.4-1.2,0.4-1.9c0-0.7-0.1-1.4-0.4-1.9c-0.3-0.5-0.7-1-1.2-1.3c-0.5-0.3-1.1-0.5-1.8-0.5c-0.7,0-1.3,0.2-1.8,0.5
	c-0.5,0.3-0.9,0.7-1.2,1.3c-0.3,0.5-0.4,1.2-0.4,1.9c0,0.7,0.1,1.3,0.4,1.9c0.3,0.5,0.7,1,1.2,1.3C135.4,26.2,136,26.3,136.7,26.3z"
	/>
<path class="st1" d="M149.8,30.4c0.9,0.2,1.8,0.3,2.7,0.3c1.9,0,3.4-0.4,4.6-1.3c1.1-0.9,1.7-2.1,1.7-3.6c0-1-0.2-1.8-0.5-2.3
	c-0.4-0.6-0.8-1.1-1.4-1.5s-1.2-0.6-1.8-0.9c-0.6-0.2-1.2-0.4-1.8-0.5c-0.6-0.1-1-0.3-1.4-0.5c-0.4-0.2-0.5-0.4-0.5-0.8
	c0-0.3,0.1-0.5,0.4-0.7c0.3-0.2,0.7-0.3,1.2-0.3c0.6,0,1.2,0.1,1.7,0.3c0.6,0.2,1.2,0.6,1.6,1.2l2.8-2.8c-0.7-0.9-1.6-1.6-2.7-2
	c-1.1-0.5-2.3-0.7-3.6-0.7c-1.2,0-2.3,0.2-3.3,0.6c-0.9,0.4-1.6,1-2.2,1.7c-0.5,0.7-0.8,1.6-0.8,2.6c0,0.9,0.2,1.7,0.5,2.3
	c0.4,0.6,0.8,1.1,1.4,1.4c0.6,0.3,1.2,0.6,1.8,0.8c0.6,0.2,1.2,0.4,1.8,0.5c0.6,0.1,1,0.3,1.4,0.5c0.4,0.2,0.6,0.5,0.6,0.9
	c0,0.3-0.2,0.5-0.5,0.7c-0.3,0.2-0.7,0.3-1.3,0.3c-0.8,0-1.6-0.1-2.3-0.4c-0.7-0.3-1.3-0.8-1.8-1.3l-2.8,2.8
	c0.5,0.6,1.2,1.1,1.9,1.5C148.2,29.9,149,30.2,149.8,30.4z"/>
<path class="st1" d="M167.7,30.8c-1.4,0-2.7-0.3-3.8-0.9c-1.1-0.6-1.9-1.4-2.5-2.4c-0.6-1-0.9-2.2-0.9-3.6V15h4.9v8.9
	c0,0.5,0.1,1,0.3,1.4c0.2,0.4,0.5,0.7,0.8,0.9c0.4,0.2,0.8,0.3,1.3,0.3c0.7,0,1.3-0.2,1.7-0.7c0.4-0.5,0.6-1.1,0.6-1.9V15h4.9v8.9
	c0,1.4-0.3,2.5-0.9,3.6c-0.6,1-1.5,1.8-2.5,2.4C170.3,30.5,169.1,30.8,167.7,30.8z"/>
<path class="st1" d="M182.1,15h-4.9v15.4h4.9v-9c0-0.5,0.1-1,0.3-1.3c0.2-0.4,0.5-0.6,0.9-0.8c0.4-0.2,0.8-0.3,1.3-0.3
	c0.7,0,1.3,0.2,1.7,0.7c0.5,0.4,0.7,1,0.7,1.8v9h4.9v-9c0-0.5,0.1-1,0.3-1.3c0.2-0.4,0.5-0.6,0.9-0.8c0.4-0.2,0.8-0.3,1.3-0.3
	c0.7,0,1.3,0.2,1.7,0.7c0.5,0.4,0.7,1,0.7,1.8v9h4.9v-9.5c0-1.3-0.3-2.4-0.8-3.3c-0.5-0.9-1.3-1.6-2.2-2.1c-0.9-0.5-2-0.8-3.1-0.8
	c-1.2,0-2.3,0.3-3.3,0.8c-0.6,0.3-1.2,0.8-1.7,1.3c-0.4-0.6-1-1-1.6-1.4c-0.8-0.5-1.8-0.7-2.9-0.7c-1.1,0-2.2,0.2-3.1,0.7
	c-0.4,0.2-0.8,0.4-1.1,0.7V15z"/>
</svg>
