<?xml version="1.0" encoding="utf-8"?>
<!-- Generator: Adobe Illustrator 27.9.0, SVG Export Plug-In . SVG Version: 6.00 Build 0)  -->
<svg version="1.1" id="Layer_1" xmlns="http://www.w3.org/2000/svg" xmlns:xlink="http://www.w3.org/1999/xlink" x="0px" y="0px"
	 viewBox="0 0 170 41" style="enable-background:new 0 0 170 41;" xml:space="preserve">
<style type="text/css">
	.st0{fill:#15161B;}
	.st1{fill-rule:evenodd;clip-rule:evenodd;fill:#009FFF;}
</style>
<path class="st0" d="M51.7,28.5h12v-3.6h-7.7V11.4h-4.2V28.5z"/>
<path class="st0" d="M70.7,26.1c-1.7,0-2.6-1.5-2.6-3.7s0.9-3.7,2.6-3.7s2.6,1.5,2.6,3.7S72.4,26.1,70.7,26.1z M70.7,28.9
	c4,0,6.6-2.8,6.6-6.5s-2.6-6.5-6.6-6.5c-3.9,0-6.6,2.8-6.6,6.5S66.8,28.9,70.7,28.9z"/>
<path class="st0" d="M84.1,32.8c1.8,0,3.4-0.4,4.5-1.4c1-0.9,1.6-2.2,1.6-4.1V16.3h-3.7v1.3h0c-0.7-1-1.8-1.7-3.5-1.7
	c-3,0-5.2,2.5-5.2,6.1c0,3.8,2.6,5.8,5.3,5.8c1.5,0,2.4-0.6,3.1-1.4h0.1v1.2c0,1.5-0.7,2.4-2.4,2.4c-1.3,0-1.9-0.6-2.2-1.2h-3.8
	C78.5,31.4,80.8,32.8,84.1,32.8z M84.1,25c-1.5,0-2.4-1.2-2.4-3c0-1.9,1-3.1,2.4-3.1c1.6,0,2.5,1.4,2.5,3C86.6,23.6,85.8,25,84.1,25
	z"/>
<path class="st0" d="M98,26.1c-1.7,0-2.6-1.5-2.6-3.7s0.9-3.7,2.6-3.7s2.6,1.5,2.6,3.7S99.7,26.1,98,26.1z M98,28.9
	c4,0,6.6-2.8,6.6-6.5s-2.6-6.5-6.6-6.5c-3.9,0-6.6,2.8-6.6,6.5S94.1,28.9,98,28.9z"/>
<path class="st0" d="M105.7,28.5h3.9V16.3h-3.9V28.5z M105.7,14.5h3.9v-3.2h-3.9V14.5z"/>
<path class="st0" d="M111.3,32.6h3.9v-5.3h0c0.8,1,1.9,1.7,3.5,1.7c3.2,0,5.4-2.5,5.4-6.5c0-3.7-2-6.5-5.3-6.5
	c-1.7,0-2.9,0.7-3.7,1.8h-0.1v-1.5h-3.7V32.6z M117.7,25.9c-1.7,0-2.6-1.4-2.6-3.4s0.9-3.5,2.6-3.5c1.7,0,2.5,1.4,2.5,3.5
	C120.1,24.6,119.2,25.9,117.7,25.9z"/>
<path class="st0" d="M130.5,28.9c3.2,0,5.6-1.4,5.6-4.1c0-3.1-2.5-3.7-4.7-4.1c-1.6-0.3-3-0.4-3-1.3c0-0.8,0.7-1.1,1.7-1.1
	c1.1,0,1.8,0.3,2,1.4h3.6c-0.2-2.4-2.1-3.9-5.5-3.9c-2.9,0-5.3,1.3-5.3,3.9c0,2.9,2.3,3.5,4.4,3.8c1.6,0.3,3.1,0.4,3.1,1.5
	c0,0.8-0.7,1.2-1.9,1.2c-1.3,0-2.1-0.6-2.3-1.8h-3.7C124.6,27.3,126.9,28.9,130.5,28.9z"/>
<path class="st0" d="M141.4,28.9c1.7,0,2.8-0.7,3.7-1.9h0.1v1.5h3.7V16.3H145v6.9c0,1.5-0.8,2.5-2.2,2.5c-1.2,0-1.8-0.7-1.8-2.1
	v-7.2h-3.9v8.1C137.1,27.1,138.5,28.9,141.4,28.9z"/>
<path class="st0" d="M150.6,28.5h3.9v-6.9c0-1.5,0.7-2.5,1.9-2.5c1.2,0,1.7,0.8,1.7,2.1v7.3h3.9v-6.9c0-1.5,0.7-2.5,1.9-2.5
	c1.2,0,1.7,0.8,1.7,2.1v7.3h3.9v-8c0-2.8-1.4-4.7-4.2-4.7c-1.6,0-2.9,0.7-3.9,2.2h0c-0.6-1.3-1.8-2.2-3.5-2.2c-1.8,0-3,0.8-3.7,2.1
	h-0.1v-1.8h-3.7V28.5z"/>
<path class="st1" d="M20.5,40.5c11,0,20-9,20-20c0-11-9-20-20-20c-11,0-20,9-20,20C0.5,31.6,9.5,40.5,20.5,40.5z M26.7,9.9
	C27,8.8,26,8.1,25,8.8l-13.3,9.5c-1,0.7-0.9,2.2,0.2,2.2h3.5v0h6.8l-5.6,2l-2.5,8.7c-0.3,1.1,0.7,1.7,1.7,1l13.3-9.5
	c1-0.7,0.9-2.2-0.2-2.2h-5.3L26.7,9.9z"/>
</svg>
